<?xml version="1.0" encoding="UTF-8" standalone="no"?>
<!DOCTYPE svg PUBLIC "-//W3C//DTD SVG 1.1//EN" "http://www.w3.org/Graphics/SVG/1.1/DTD/svg11.dtd">
<svg width="100%" height="100%" viewBox="0 0 21 21" version="1.1" xmlns="http://www.w3.org/2000/svg" xmlns:xlink="http://www.w3.org/1999/xlink" xml:space="preserve" xmlns:serif="http://www.serif.com/" style="fill-rule:evenodd;clip-rule:evenodd;stroke-linejoin:round;stroke-miterlimit:2;">
    <g id="data_table_row_handle">
        <g id="data_table" transform="matrix(0.95,0,0,0.95,-1.850004,-1.062713)">
            <path d="M16.969,21L6.25,21C4.455,21 3,19.545 3,17.75L3,6.25C3,4.455 4.455,3 6.25,3L17.75,3C19.545,3 21,4.455 21,6.25L21,13.744L20.626,13.744L20.626,12.316C20.626,11.563 20.175,10.894 19.5,10.602L19.5,10L15.5,10L15.5,13.882L14,16.174L14,15.5L10,15.5L10,19.5L14,19.5L14,18.983C14.342,19.304 14.8,19.493 15.283,19.493L15.5,19.493L15.5,19.5L16.967,19.5L16.967,20.922C16.967,20.948 16.968,20.974 16.969,21ZM14,4.5L10,4.5L10,8.5L14,8.5L14,4.5ZM8.5,10L4.5,10L4.5,14L8.5,14L8.5,10ZM14,10L10,10L10,14L14,14L14,10ZM17.75,4.5L15.5,4.5L15.5,8.5L19.5,8.5L19.5,6.25C19.5,5.284 18.717,4.5 17.75,4.5ZM8.5,4.5L6.25,4.5C5.284,4.5 4.5,5.284 4.5,6.25L4.5,8.5L8.5,8.5L8.5,4.5ZM8.5,15.5L4.5,15.5L4.5,17.75C4.5,18.716 5.284,19.5 6.25,19.5L8.5,19.5L8.5,15.5Z" style="fill:rgb(179,179,179);"/>
        </g>
        <g id="data_table1" serif:id="data_table" transform="matrix(0.95,0,0,0.95,-1.850004,-2.062713)">
            <path d="M16.967,21L6.25,21C4.455,21 3,19.545 3,17.75L3,6.25C3,4.455 4.455,3 6.25,3L17.75,3C19.545,3 21,4.455 21,6.25L21,14.797L20.626,14.797L20.626,13.369C20.626,12.616 20.175,11.946 19.5,11.655L19.5,10L15.5,10L15.5,14L16.112,14L14,17.226L14,15.5L10,15.5L10,19.5L13.605,19.5C13.615,19.521 13.626,19.542 13.637,19.562L13.64,19.568C13.963,20.165 14.598,20.546 15.283,20.546L16.967,20.546L16.967,21ZM14,4.5L10,4.5L10,8.5L14,8.5L14,4.5ZM8.5,15.5L4.5,15.5L4.5,17.75C4.5,18.716 5.284,19.5 6.25,19.5L8.5,19.5L8.5,15.5ZM17.75,4.5L15.5,4.5L15.5,8.5L19.5,8.5L19.5,6.25C19.5,5.284 18.717,4.5 17.75,4.5ZM14,10L10,10L10,14L14,14L14,10ZM8.5,4.5L6.25,4.5C5.284,4.5 4.5,5.284 4.5,6.25L4.5,8.5L8.5,8.5L8.5,4.5ZM8.5,10L4.5,10L4.5,14L8.5,14L8.5,10Z" style="fill:rgb(224,224,224);"/>
        </g>
        <g transform="matrix(1.333333,0,0,1.333333,-0.333333,-0.333333)">
            <path d="M11.982,12.294L11.982,14.288C11.982,14.42 12.069,14.537 12.196,14.575C12.324,14.613 12.461,14.563 12.533,14.452L14.951,10.758C15.011,10.666 15.016,10.548 14.964,10.451C14.912,10.354 14.81,10.294 14.7,10.294L12.528,10.294L12.528,8.3C12.528,8.167 12.44,8.05 12.313,8.013C12.186,7.975 12.049,8.025 11.977,8.136L9.559,11.83C9.498,11.922 9.494,12.04 9.546,12.137C9.598,12.233 9.7,12.294 9.81,12.294L11.982,12.294Z" style="fill:rgb(225,127,252);fill-rule:nonzero;"/>
        </g>
    </g>
</svg>
