<?xml version="1.0" encoding="UTF-8" standalone="no"?><!DOCTYPE svg PUBLIC "-//W3C//DTD SVG 1.1//EN" "http://www.w3.org/Graphics/SVG/1.1/DTD/svg11.dtd"><svg width="100%" height="100%" viewBox="0 0 16 16" version="1.1" xmlns="http://www.w3.org/2000/svg" xmlns:xlink="http://www.w3.org/1999/xlink" xml:space="preserve" xmlns:serif="http://www.serif.com/" style="fill-rule:evenodd;clip-rule:evenodd;stroke-linejoin:round;stroke-miterlimit:2;"><g id="data_table"><path id="data_table1" serif:id="data_table" d="M11.972,1.838c1.279,0 2.316,1.037 2.316,2.316l0,8.194c0,1.279 -1.037,2.316 -2.316,2.316l-8.194,0c-1.279,0 -2.316,-1.037 -2.316,-2.316l0,-8.194c0,-1.279 1.037,-2.316 2.316,-2.316l8.194,0Zm-2.672,8.906l-2.85,0l0,2.85l2.85,0l0,-2.85Zm3.919,0l-2.85,0l0,2.85l1.603,0c0.689,0 1.247,-0.558 1.247,-1.247l0,-1.603Zm-7.838,0l-2.85,0l0,1.603c0,0.689 0.558,1.247 1.247,1.247l1.603,0l0,-2.85Zm0,-3.919l-2.85,0l0,2.85l2.85,0l0,-2.85Zm3.919,0l-2.85,0l0,2.85l2.85,0l0,-2.85Zm3.919,0l-2.85,0l0,2.85l2.85,0l0,-2.85Zm-7.838,-3.919l-1.603,0c-0.689,0 -1.247,0.558 -1.247,1.247l0,1.603l2.85,0l0,-2.85Zm6.591,0l-1.603,0l0,2.85l2.85,0l0,-1.603c0,-0.689 -0.558,-1.247 -1.247,-1.247Zm-2.672,0l-2.85,0l0,2.85l2.85,0l0,-2.85Z" style="fill:#b3b3b3;fill-rule:nonzero;"/><path id="data_table2" serif:id="data_table" d="M11.972,1.088c1.279,0 2.316,1.037 2.316,2.316l0,8.194c0,1.279 -1.037,2.316 -2.316,2.316l-8.194,0c-1.279,0 -2.316,-1.037 -2.316,-2.316l0,-8.194c0,-1.279 1.037,-2.316 2.316,-2.316l8.194,0Zm-2.672,8.906l-2.85,0l0,2.85l2.85,0l0,-2.85Zm3.919,0l-2.85,0l0,2.85l1.603,0c0.689,0 1.247,-0.558 1.247,-1.247l0,-1.603Zm-7.838,0l-2.85,0l0,1.603c0,0.689 0.558,1.247 1.247,1.247l1.603,0l0,-2.85Zm0,-3.919l-2.85,0l0,2.85l2.85,0l0,-2.85Zm3.919,0l-2.85,0l0,2.85l2.85,0l0,-2.85Zm3.919,0l-2.85,0l0,2.85l2.85,0l0,-2.85Zm-7.838,-3.919l-1.603,0c-0.689,0 -1.247,0.558 -1.247,1.247l0,1.603l2.85,0l0,-2.85Zm6.591,0l-1.603,0l0,2.85l2.85,0l0,-1.603c0,-0.689 -0.558,-1.247 -1.247,-1.247Zm-2.672,0l-2.85,0l0,2.85l2.85,0l0,-2.85Z" style="fill:#e0e0e0;fill-rule:nonzero;"/></g></svg>