<?xml version="1.0" encoding="UTF-8" standalone="no"?><!DOCTYPE svg PUBLIC "-//W3C//DTD SVG 1.1//EN" "http://www.w3.org/Graphics/SVG/1.1/DTD/svg11.dtd"><svg width="100%" height="100%" viewBox="0 0 16 16" version="1.1" xmlns="http://www.w3.org/2000/svg" xmlns:xlink="http://www.w3.org/1999/xlink" xml:space="preserve" xmlns:serif="http://www.serif.com/" style="fill-rule:evenodd;clip-rule:evenodd;stroke-linejoin:round;stroke-miterlimit:2;"><g id="data_table_structure"><path id="data_table" d="M11.259,1.34c1.279,0 2.316,1.037 2.316,2.316l0,4.112c-0.33,-0.211 -0.689,-0.382 -1.069,-0.505l0,-0.936l-2.85,0l0,0.936c-0.38,0.123 -0.739,0.293 -1.069,0.505l0,-1.441l-2.85,0l0,2.85l1.441,0c-0.211,0.33 -0.382,0.689 -0.505,1.069l-0.936,0l0,2.85l0.936,0c0.123,0.38 0.293,0.739 0.505,1.069l-4.112,0c-1.279,0 -2.316,-1.037 -2.316,-2.316l-0,-8.194c0,-1.279 1.037,-2.316 2.316,-2.316l8.194,0Zm-6.591,8.906l-2.85,0l0,1.603c0,0.654 0.504,1.191 1.145,1.243l0.102,0.004l1.603,0l0,-2.85Zm0,-3.919l-2.85,0l0,2.85l2.85,0l0,-2.85Zm0,-3.919l-1.603,0c-0.689,0 -1.247,0.558 -1.247,1.247l0,1.603l2.85,0l0,-2.85Zm6.591,0l-1.603,0l0,2.85l2.85,0l0,-1.603c0,-0.654 -0.504,-1.191 -1.145,-1.243l-0.102,-0.004Zm-2.672,0l-2.85,0l0,2.85l2.85,0l0,-2.85Z" style="fill:#b3b3b3;fill-rule:nonzero;"/><path id="data_table1" serif:id="data_table" d="M11.259,0.59c1.279,0 2.316,1.037 2.316,2.316l0,4.112c-0.33,-0.211 -0.689,-0.382 -1.069,-0.505l0,-0.936l-2.85,0l0,0.936c-0.38,0.123 -0.739,0.293 -1.069,0.505l0,-1.441l-2.85,0l0,2.85l1.441,0c-0.211,0.33 -0.382,0.689 -0.505,1.069l-0.936,0l0,2.85l0.936,0c0.123,0.38 0.293,0.739 0.505,1.069l-4.112,0c-1.279,0 -2.316,-1.037 -2.316,-2.316l-0,-8.194c0,-1.279 1.037,-2.316 2.316,-2.316l8.194,0Zm-6.591,8.906l-2.85,0l0,1.603c0,0.654 0.504,1.191 1.145,1.243l0.102,0.004l1.603,0l0,-2.85Zm0,-3.919l-2.85,0l0,2.85l2.85,0l0,-2.85Zm0,-3.919l-1.603,0c-0.689,0 -1.247,0.558 -1.247,1.247l0,1.603l2.85,0l0,-2.85Zm6.591,0l-1.603,0l0,2.85l2.85,0l0,-1.603c0,-0.654 -0.504,-1.191 -1.145,-1.243l-0.102,-0.004Zm-2.672,0l-2.85,0l0,2.85l2.85,0l0,-2.85Z" style="fill:#e0e0e0;fill-rule:nonzero;"/><path id="data_table2" serif:id="data_table" d="M11.081,7.003c0.139,0 0.277,0.008 0.412,0.023l0.201,0.028l0.123,0.51c0.183,0.758 0.937,1.222 1.687,1.059l0.102,-0.026l0.429,-0.127c0.215,0.277 0.394,0.585 0.531,0.917l0.077,0.202l-0.319,0.307c-0.553,0.533 -0.581,1.401 -0.083,1.967l0.083,0.087l0.319,0.307c-0.119,0.341 -0.282,0.659 -0.483,0.948l-0.125,0.17l-0.429,-0.127c-0.748,-0.221 -1.527,0.2 -1.761,0.931l-0.028,0.102l-0.123,0.51c-0.2,0.034 -0.405,0.051 -0.614,0.051c-0.139,0 -0.277,-0.008 -0.412,-0.023l-0.201,-0.028l-0.123,-0.51c-0.183,-0.758 -0.937,-1.222 -1.687,-1.059l-0.102,0.026l-0.429,0.127c-0.215,-0.277 -0.394,-0.585 -0.531,-0.917l-0.077,-0.202l0.319,-0.307c0.553,-0.533 0.581,-1.401 0.083,-1.967l-0.083,-0.087l-0.319,-0.307c0.119,-0.341 0.282,-0.659 0.483,-0.948l0.125,-0.17l0.429,0.127c0.748,0.221 1.527,-0.2 1.761,-0.931l0.028,-0.102l0.123,-0.51c0.2,-0.034 0.405,-0.051 0.614,-0.051Zm0,2.85c-0.57,0 -1.033,0.479 -1.033,1.069c0,0.59 0.462,1.069 1.033,1.069c0.57,0 1.033,-0.479 1.033,-1.069c0,-0.59 -0.462,-1.069 -1.033,-1.069Z" style="fill:#ffdd65;fill-rule:nonzero;"/></g></svg>